<?xml version="1.0" standalone="no"?><!DOCTYPE svg PUBLIC "-//W3C//DTD SVG 1.1//EN" "http://www.w3.org/Graphics/SVG/1.1/DTD/svg11.dtd"><svg t="1678439003304" class="icon" viewBox="0 0 1024 1024" version="1.1" xmlns="http://www.w3.org/2000/svg" p-id="1470" xmlns:xlink="http://www.w3.org/1999/xlink" width="200" height="200"><path d="M0 0h1024v1024H0V0z" fill="#202425" opacity=".01" p-id="1471"></path><path d="M136.533333 375.466667h750.933334v546.133333a34.133333 34.133333 0 0 1-34.133334 34.133333H170.666667a34.133333 34.133333 0 0 1-34.133334-34.133333V375.466667z" fill="#11AA66" p-id="1472"></path><path d="M409.6 716.8a34.133333 34.133333 0 0 1 34.133333-34.133333h136.533334a34.133333 34.133333 0 0 1 34.133333 34.133333v238.933333h-204.8v-238.933333z" fill="#FFFFFF" p-id="1473"></path><path d="M493.056 80.896a34.133333 34.133333 0 0 1 37.888 0l446.122667 297.437867a17.066667 17.066667 0 0 1-9.4208 31.266133H56.32a17.066667 17.066667 0 0 1-9.454933-31.266133L493.056 80.896z" fill="#FFAA44" p-id="1474"></path></svg>